<?xml version="1.0" encoding="utf-8"?>
<!-- Generator: Adobe Illustrator 21.1.0, SVG Export Plug-In . SVG Version: 6.00 Build 0)  -->
<svg version="1.1" xmlns="http://www.w3.org/2000/svg" xmlns:xlink="http://www.w3.org/1999/xlink" x="0px" y="0px"
	 viewBox="0 0 1296 936" style="enable-background:new 0 0 1296 936;" xml:space="preserve">
<style type="text/css">
	.st0{fill:none;stroke:#000000;stroke-width:2;stroke-miterlimit:10;}
</style>
<g id="dots">
	<circle cx="281.2" cy="499.8" r="3.1"/>
	<circle cx="113.1" cy="382.2" r="3.1"/>
	<circle cx="409.5" cy="441.4" r="3.1"/>
	<circle cx="124.6" cy="461" r="3.1"/>
	<circle cx="250.1" cy="283.3" r="3.1"/>
	<circle cx="347.6" cy="362.2" r="3.1"/>
	<circle cx="437.9" cy="350.5" r="3.1"/>
	<circle cx="572.5" cy="344.2" r="3.1"/>
	<circle cx="540.6" cy="418.5" r="3.1"/>
	<circle cx="589.6" cy="409.3" r="3.1"/>
	<circle cx="625.5" cy="444.1" r="3.1"/>
	<circle cx="575.6" cy="669.4" r="3.1"/>
	<circle cx="350" cy="633.8" r="3.1"/>
	<circle cx="181.9" cy="630.7" r="3.1"/>
	<circle cx="482.1" cy="543.9" r="3.1"/>
	<circle cx="507.4" cy="707.4" r="3.1"/>
	<circle cx="742.9" cy="351.2" r="3.1"/>
	<circle cx="879.9" cy="374.1" r="3.1"/>
	<circle cx="928.2" cy="457.6" r="3.1"/>
	<circle cx="972.7" cy="307" r="3.1"/>
	<circle cx="1015" cy="322.8" r="3.1"/>
	<circle cx="1033.6" cy="429.7" r="3.1"/>
	<circle cx="1127" cy="328.3" r="3.1"/>
	<circle cx="1133.7" cy="378" r="3.1"/>
	<circle cx="1121.1" cy="462.3" r="3.1"/>
	<circle cx="1109.4" cy="562.3" r="3.1"/>
	<circle cx="1018.1" cy="552.3" r="3.1"/>
	<circle cx="857.4" cy="596.8" r="3.1"/>
	<circle cx="745.9" cy="543.4" r="3.1"/>
	<circle cx="648.9" cy="549.2" r="3.1"/>
	<circle cx="721.9" cy="705" r="3.1"/>
	<circle cx="857.4" cy="511" r="3.1"/>
	<circle cx="851.3" cy="518.5" r="3.1"/>
	<circle cx="1016" cy="648" r="3.1"/>
	<circle cx="753.1" cy="400.8" r="3.1"/>
	<circle cx="429.9" cy="222.6" r="3.1"/>
	<circle cx="296.5" cy="453.1" r="3.1"/>
	<circle cx="216.7" cy="453.1" r="3.1"/>
</g>
<g id="lines">
	<line class="st0" x1="113.1" y1="382.2" x2="124.6" y2="461"/>
	<line class="st0" x1="30.1" y1="406.3" x2="113.1" y2="382.2"/>
	<line class="st0" x1="41" y1="450.1" x2="124.6" y2="461"/>
	<line class="st0" x1="49.3" y1="576.7" x2="124.6" y2="461"/>
	<line class="st0" x1="47.7" y1="609.3" x2="182.7" y2="630.7"/>
	<line class="st0" x1="182.7" y1="630.7" x2="55.6" y2="687.2"/>
	<line class="st0" x1="281.2" y1="501.4" x2="181.9" y2="630.6"/>
	<line class="st0" x1="124.6" y1="461" x2="181.9" y2="630.6"/>
	<line class="st0" x1="216.7" y1="453.1" x2="181.9" y2="630.6"/>
	<line class="st0" x1="281.2" y1="499.8" x2="124.6" y2="461"/>
	<line class="st0" x1="216.7" y1="453.1" x2="124.6" y2="461"/>
	<line class="st0" x1="296.5" y1="453.1" x2="216.7" y2="453.1"/>
	<line class="st0" x1="281.2" y1="499.8" x2="216.7" y2="453.1"/>
	<line class="st0" x1="347.6" y1="362.2" x2="281.2" y2="499.8"/>
	<line class="st0" x1="113.1" y1="382.2" x2="216.7" y2="453.1"/>
	<line class="st0" x1="250.1" y1="283.3" x2="113.1" y2="382.2"/>
	<line class="st0" x1="216.7" y1="453.1" x2="250.1" y2="283.3"/>
	<line class="st0" x1="296.5" y1="453.1" x2="250.1" y2="283.3"/>
	<line class="st0" x1="347.6" y1="362.2" x2="250.1" y2="283.3"/>
	<line class="st0" x1="216.7" y1="453.1" x2="347.6" y2="362.2"/>
	<line class="st0" x1="429.9" y1="222.6" x2="347.6" y2="362.2"/>
	<line class="st0" x1="250.1" y1="283.3" x2="429.9" y2="222.6"/>
	<line class="st0" x1="437.9" y1="350.5" x2="347.6" y2="362.2"/>
	<line class="st0" x1="429.9" y1="222.6" x2="437.9" y2="350.5"/>
	<line class="st0" x1="572.5" y1="344.2" x2="437.9" y2="350.5"/>
	<line class="st0" x1="429.9" y1="222.6" x2="572.5" y2="344.2"/>
	<line class="st0" x1="589.6" y1="409.3" x2="572.5" y2="344.2"/>
	<line class="st0" x1="540.6" y1="418.5" x2="589.6" y2="409.3"/>
	<line class="st0" x1="572.5" y1="344.2" x2="540.6" y2="418.5"/>
	<line class="st0" x1="742.9" y1="351.2" x2="572.5" y2="344.2"/>
	<line class="st0" x1="753.1" y1="400.8" x2="572.5" y2="344.2"/>
	<line class="st0" x1="625.5" y1="444.1" x2="742.9" y2="351.2"/>
	<line class="st0" x1="589.6" y1="409.3" x2="742.9" y2="351.2"/>
	<line class="st0" x1="625.5" y1="444.1" x2="572.5" y2="344.2"/>
	<line class="st0" x1="589.6" y1="409.3" x2="753.1" y2="400.8"/>
	<line class="st0" x1="742.9" y1="351.2" x2="879.9" y2="374.1"/>
	<line class="st0" x1="753.1" y1="400.8" x2="879.9" y2="374.1"/>
	<line class="st0" x1="742.9" y1="351.2" x2="753.1" y2="400.8"/>
	<line class="st0" x1="857.4" y1="511" x2="879.9" y2="374.1"/>
	<line class="st0" x1="928.2" y1="457.6" x2="753.1" y2="400.8"/>
	<line class="st0" x1="742.9" y1="351.2" x2="857.4" y2="511"/>
	<line class="st0" x1="753.1" y1="400.8" x2="851.3" y2="518.5"/>
	<line class="st0" x1="857.4" y1="511" x2="753.1" y2="400.8"/>
	<line class="st0" x1="851.3" y1="518.5" x2="858.4" y2="511"/>
	<line class="st0" x1="745.9" y1="543.4" x2="753.1" y2="400.8"/>
	<line class="st0" x1="851.3" y1="518.5" x2="745.9" y2="543.4"/>
	<line class="st0" x1="857.4" y1="511" x2="745.9" y2="543.4"/>
	<line class="st0" x1="742.9" y1="351.2" x2="745.9" y2="543.4"/>
	<line class="st0" x1="879.9" y1="374.1" x2="928.2" y2="457.6"/>
	<line class="st0" x1="1033.6" y1="429.7" x2="928.2" y2="457.6"/>
	<line class="st0" x1="1015" y1="322.8" x2="1033.6" y2="429.7"/>
	<line class="st0" x1="928.2" y1="457.6" x2="1015" y2="322.8"/>
	<line class="st0" x1="972.7" y1="307" x2="928.2" y2="457.6"/>
	<line class="st0" x1="879.9" y1="374.1" x2="972.7" y2="307"/>
	<line class="st0" x1="1015" y1="322.8" x2="879.9" y2="374.1"/>
	<line class="st0" x1="972.7" y1="307" x2="1033.6" y2="429.7"/>
	<line class="st0" x1="879.9" y1="374.1" x2="1033.6" y2="429.7"/>
	<line class="st0" x1="972.7" y1="307" x2="1015" y2="322.8"/>
	<line class="st0" x1="1127" y1="328.3" x2="972.7" y2="307"/>
	<line class="st0" x1="1015" y1="322.8" x2="1127" y2="328.3"/>
	<line class="st0" x1="1133.7" y1="378" x2="1015" y2="322.8"/>
	<line class="st0" x1="1121.1" y1="462.3" x2="1015" y2="322.8"/>
	<line class="st0" x1="350" y1="633.8" x2="182.7" y2="630.7"/>
	<line class="st0" x1="281.2" y1="499.8" x2="350" y2="633.8"/>
	<line class="st0" x1="482.1" y1="543.9" x2="350" y2="633.8"/>
	<line class="st0" x1="296.5" y1="453.1" x2="350" y2="633.8"/>
	<line class="st0" x1="409.5" y1="441.4" x2="281.2" y2="499.8"/>
	<line class="st0" x1="482.1" y1="543.9" x2="409.5" y2="441.4"/>
	<line class="st0" x1="347.6" y1="362.2" x2="409.5" y2="441.4"/>
	<line class="st0" x1="437.9" y1="350.5" x2="409.5" y2="441.4"/>
	<line class="st0" x1="296.5" y1="453.1" x2="437.9" y2="350.5"/>
	<line class="st0" x1="409.5" y1="441.4" x2="296.5" y2="453.1"/>
	<line class="st0" x1="350" y1="633.8" x2="507.4" y2="707.4"/>
	<line class="st0" x1="482.1" y1="543.9" x2="507.4" y2="707.4"/>
	<line class="st0" x1="575.6" y1="669.4" x2="507.4" y2="707.4"/>
	<line class="st0" x1="482.1" y1="543.9" x2="575.6" y2="669.4"/>
	<line class="st0" x1="648.9" y1="549.2" x2="575.6" y2="669.4"/>
	<line class="st0" x1="482.1" y1="543.9" x2="648.9" y2="549.2"/>
	<line class="st0" x1="540.6" y1="418.5" x2="482.1" y2="543.9"/>
	<line class="st0" x1="589.6" y1="409.3" x2="482.1" y2="543.9"/>
	<line class="st0" x1="625.5" y1="444.1" x2="482.1" y2="543.9"/>
	<line class="st0" x1="540.6" y1="418.5" x2="409.5" y2="441.4"/>
	<line class="st0" x1="572.5" y1="344.2" x2="409.5" y2="441.4"/>
	<line class="st0" x1="437.9" y1="350.5" x2="540.6" y2="418.5"/>
	<line class="st0" x1="589.6" y1="409.3" x2="437.9" y2="350.5"/>
	<line class="st0" x1="648.9" y1="549.2" x2="540.6" y2="418.5"/>
	<line class="st0" x1="589.6" y1="409.3" x2="648.9" y2="549.2"/>
	<line class="st0" x1="625.5" y1="444.1" x2="540.6" y2="418.5"/>
	<line class="st0" x1="753.1" y1="400.8" x2="625.5" y2="444.1"/>
	<line class="st0" x1="648.9" y1="549.2" x2="745.9" y2="543.4"/>
	<line class="st0" x1="625.5" y1="444.1" x2="745.9" y2="543.4"/>
	<line class="st0" x1="753.1" y1="400.8" x2="648.9" y2="549.2"/>
	<line class="st0" x1="575.6" y1="669.4" x2="721.9" y2="705"/>
	<line class="st0" x1="648.9" y1="549.2" x2="721.9" y2="705"/>
	<line class="st0" x1="857.4" y1="596.8" x2="721.9" y2="705"/>
	<line class="st0" x1="745.9" y1="543.4" x2="721.9" y2="705"/>
	<line class="st0" x1="857.4" y1="596.8" x2="745.9" y2="543.4"/>
	<line class="st0" x1="851.3" y1="518.5" x2="857.4" y2="596.8"/>
	<line class="st0" x1="857.4" y1="511" x2="857.4" y2="596.8"/>
	<line class="st0" x1="928.2" y1="457.6" x2="857.4" y2="596.8"/>
	<line class="st0" x1="857.4" y1="511" x2="928.2" y2="457.6"/>
	<line class="st0" x1="1018.1" y1="552.3" x2="857.4" y2="511"/>
	<line class="st0" x1="851.3" y1="518.5" x2="1018.1" y2="552.3"/>
	<line class="st0" x1="857.4" y1="596.8" x2="1018.1" y2="552.3"/>
	<line class="st0" x1="1016" y1="648" x2="857.4" y2="596.8"/>
	<line class="st0" x1="1018.1" y1="552.3" x2="1016" y2="648"/>
	<line class="st0" x1="1109.4" y1="562.3" x2="1016" y2="648"/>
	<line class="st0" x1="1018.1" y1="552.3" x2="1109.4" y2="562.3"/>
	<line class="st0" x1="1033.6" y1="429.7" x2="1018.1" y2="552.3"/>
	<line class="st0" x1="928.2" y1="457.6" x2="1018.1" y2="552.3"/>
	<line class="st0" x1="857.4" y1="511" x2="1033.6" y2="429.7"/>
	<line class="st0" x1="928.2" y1="457.6" x2="1121.1" y2="462.3"/>
	<line class="st0" x1="1133.7" y1="378" x2="1121.1" y2="462.3"/>
	<line class="st0" x1="1033.6" y1="429.7" x2="1127" y2="328.3"/>
	<line class="st0" x1="1133.7" y1="378" x2="1033.6" y2="429.7"/>
	<line class="st0" x1="1121.1" y1="462.3" x2="1033.6" y2="429.7"/>
	<line class="st0" x1="1109.4" y1="562.3" x2="1033.6" y2="429.7"/>
	<line class="st0" x1="1121.1" y1="462.3" x2="1018.1" y2="552.3"/>
	<line class="st0" x1="1109.4" y1="562.3" x2="1216.1" y2="467.2"/>
	<line class="st0" x1="1214.7" y1="491" x2="1109.4" y2="562.3"/>
	<line class="st0" x1="1121.1" y1="462.3" x2="1109.4" y2="562.3"/>
	<line class="st0" x1="1215.7" y1="442.5" x2="1121.1" y2="462.3"/>
	<line class="st0" x1="1214.4" y1="465.4" x2="1121.1" y2="462.3"/>
	<line class="st0" x1="1215.7" y1="439.6" x2="1133.7" y2="378"/>
	<line class="st0" x1="1216.4" y1="426.6" x2="1127" y2="328.3"/>
	<line class="st0" x1="1214.1" y1="397.2" x2="1127" y2="328.3"/>
	<line class="st0" x1="1121.1" y1="462.3" x2="1127" y2="328.3"/>
	<line class="st0" x1="1133.7" y1="378" x2="1214.4" y2="314.9"/>
	<line class="st0" x1="1214.1" y1="294.6" x2="1127" y2="328.3"/>
	<line class="st0" x1="1218.4" y1="415.8" x2="1133.7" y2="378"/>
	<line class="st0" x1="648.9" y1="549.2" x2="625.5" y2="444.1"/>
	<line class="st0" x1="589.6" y1="409.3" x2="625.5" y2="444.1"/>
</g>
</svg>
